<svg width="108" height="46" viewBox="0 0 108 46" fill="none" xmlns="http://www.w3.org/2000/svg">
<g clip-path="url(#clip0_811_1001)">
<path fill-rule="evenodd" clip-rule="evenodd" d="M9.65326 23.2609L9.65601 30.4226C10.4881 30.9745 12.8021 31.4908 13.9737 31.6262C18.6447 32.1636 23.2215 30.5809 26.3199 27.5914C30.157 23.8879 32.5488 17.6278 30.0875 11.0721C30.0371 10.9385 29.9859 10.8085 29.9328 10.6804C28.3108 5.92878 22.3839 1.77219 20.1413 1.32367L19.5848 1.70537C22.7583 2.48799 25.94 5.31916 22.5102 7.83362C21.4118 8.63912 20.2292 8.90732 19.2443 8.61166C22.4965 10.0698 22.8324 10.5183 24.1231 12.9394C24.3409 13.4767 24.6137 14.1504 24.7858 15.3175C25.0302 16.9752 24.7537 18.7171 24.1377 20.0938C21.7029 25.5374 15.279 27.2024 10.521 23.8916C10.1512 23.6343 10.0707 23.4678 9.65326 23.2618V23.2609Z" fill="#0071EB"/>
<path fill-rule="evenodd" clip-rule="evenodd" d="M14.8351 10.3664C11.7613 10.8708 9.11414 13.7385 9.73841 17.4658C10.6107 22.6751 17.2314 24.4225 20.6255 20.2805C21.5647 19.1345 22.1743 17.4256 21.9089 15.4301C21.5153 12.4708 18.4525 9.77325 14.8351 10.3664Z" stroke="#101218" stroke-width="1.33824" stroke-miterlimit="22.9256" stroke-linecap="round" stroke-linejoin="round"/>
<path fill-rule="evenodd" clip-rule="evenodd" d="M6.22348 27.649C6.2546 26.0637 6.21982 24.2842 6.18595 22.5194C6.13743 20.0626 6.09075 17.6351 6.21798 15.7953C6.25094 15.3175 6.3205 14.8479 6.42302 14.3893C6.94477 12.0469 8.32145 10.0991 10.1238 8.77823C11.927 7.45647 14.1595 6.75715 16.3939 6.91276C16.8223 6.94205 17.2562 7.00521 17.69 7.10223C18.1697 7.20933 18.5999 7.35487 19.0173 7.49583C20.1029 7.86289 21.0777 8.1915 22.1798 7.38416C22.762 6.95761 23.1263 6.54936 23.3148 6.164C23.5354 5.71548 23.508 5.28161 23.313 4.87886C23.0887 4.41477 22.6521 3.97449 22.1048 3.58089C21.021 2.80285 19.5409 2.23533 18.3408 2.0065C15.0319 1.37582 11.7796 1.96439 8.99972 3.45C6.13103 4.98321 3.76302 7.47112 2.35064 10.5604C1.29159 12.8781 0.931854 15.4795 1.21012 18.0196C1.49205 20.5917 2.42936 23.0961 3.95616 25.173C4.40377 25.7817 4.93924 26.4225 5.51774 26.9991C5.7475 27.228 5.98457 27.4477 6.22439 27.65L6.22348 27.649ZM0.195915 18.8846L0.559308 44.2965C0.567546 44.8832 1.03987 45.3647 1.62752 45.3647H6.20517H7.27338V29.6628L7.26789 29.6582L7.30725 28.7621C7.38871 26.914 7.34569 24.6943 7.30267 22.4984C7.25507 20.0791 7.20839 17.6901 7.33471 15.8703C7.36491 15.441 7.42533 15.0264 7.5132 14.631C7.97271 12.5696 9.1892 10.8506 10.7847 9.68077C12.3792 8.51095 14.3499 7.89218 16.3188 8.02948C16.7005 8.05603 17.0777 8.11003 17.4484 8.19241C17.8603 8.28395 18.2676 8.42216 18.6612 8.55489C20.0361 9.01897 21.2709 9.43637 22.8398 8.28578C23.573 7.74755 24.0489 7.19926 24.3171 6.65371C24.7071 5.86011 24.6604 5.09671 24.3199 4.39189C24.0087 3.7484 23.4476 3.16899 22.7565 2.67378C21.5372 1.7978 19.8823 1.16163 18.5459 0.906248C14.9788 0.22706 11.4712 0.861396 8.4734 2.46417C5.39143 4.11088 2.84768 6.78186 1.33278 10.0963C0.186762 12.6035 -0.203176 15.4081 0.0961424 18.1377C0.123603 18.3876 0.156555 18.6365 0.195 18.8846H0.195915Z" fill="#101218"/>
<path d="M29.7497 27.7324L33.8102 17.4365H35.434L39.4798 27.7324H37.3626L36.4198 25.1657H32.8088L31.866 27.7324H29.7488H29.7497ZM34.6221 19.5967L33.1429 23.7588H36.0583L34.6221 19.5967Z" fill="#101218"/>
<path d="M40.5829 27.7324V17.4365H45.1367C45.61 17.4365 46.0475 17.5354 46.4493 17.734C46.8503 17.9317 47.1963 18.1935 47.4864 18.5175C47.7766 18.8416 48.0036 19.2086 48.1684 19.6196C48.3331 20.0306 48.4146 20.4434 48.4146 20.8599C48.4146 21.5272 48.248 22.1332 47.9148 22.6796C47.5816 23.2261 47.1295 23.6197 46.5592 23.8613L48.9812 27.7333H46.7194L44.5582 24.2815H42.5857V27.7333H40.5847L40.5829 27.7324ZM42.5838 22.5268H45.0928C45.2768 22.5268 45.448 22.4837 45.6072 22.3959C45.7665 22.3089 45.9047 22.1908 46.021 22.0407C46.1372 21.8906 46.2287 21.7139 46.2965 21.5117C46.3642 21.3084 46.3981 21.0915 46.3981 20.859C46.3981 20.6174 46.3596 20.3949 46.2818 20.1917C46.2049 19.9885 46.1006 19.8119 45.9697 19.6626C45.8397 19.5125 45.6896 19.3963 45.5203 19.3148C45.3509 19.2324 45.1798 19.1912 45.0058 19.1912H42.5838V22.5268Z" fill="#101218"/>
<path d="M57.8106 19.1912H54.5328V27.7323H52.5318V19.1912H49.2402V17.4356H57.8106V19.1912Z" fill="#101218"/>
<path d="M65.148 20.1331C65.0803 20.0654 64.9567 19.9739 64.7782 19.8576C64.5988 19.7414 64.3819 19.6279 64.1256 19.5171C63.8693 19.4063 63.5919 19.3121 63.2917 19.2342C62.9924 19.1574 62.6875 19.118 62.3782 19.118C61.8271 19.118 61.4161 19.2196 61.1452 19.4228C60.8742 19.626 60.7388 19.9107 60.7388 20.2787C60.7388 20.491 60.7891 20.6677 60.8907 20.8077C60.9923 20.9478 61.1397 21.0714 61.3328 21.1775C61.526 21.2837 61.7704 21.3807 62.0651 21.4677C62.3599 21.5547 62.7004 21.6462 63.0876 21.7432C63.5901 21.8787 64.0468 22.0233 64.4578 22.178C64.8688 22.3327 65.2167 22.5258 65.5022 22.7583C65.7878 22.9908 66.0075 23.2682 66.1622 23.5922C66.3169 23.9163 66.3947 24.3153 66.3947 24.7886C66.3947 25.3396 66.2904 25.811 66.0826 26.2028C65.8748 26.5946 65.5965 26.9113 65.2487 27.1529C64.9009 27.3946 64.4944 27.5712 64.0304 27.682C63.5663 27.7927 63.083 27.8486 62.5805 27.8486C61.807 27.8486 61.0436 27.7323 60.2893 27.5008C59.5351 27.2692 58.8586 26.9406 58.2591 26.5149L59.1433 24.7895C59.2303 24.8765 59.3877 24.99 59.6147 25.13C59.8417 25.2701 60.1099 25.4101 60.4193 25.5501C60.7287 25.6902 61.072 25.8092 61.4491 25.9053C61.8262 26.0023 62.2125 26.0499 62.6088 26.0499C63.7109 26.0499 64.2619 25.6966 64.2619 24.9918C64.2619 24.7593 64.1988 24.5661 64.0734 24.4115C63.948 24.2568 63.7686 24.1213 63.537 24.005C63.3054 23.8888 63.0244 23.7826 62.6958 23.6865C62.3672 23.5895 61.9992 23.4879 61.5937 23.3817C61.1003 23.2462 60.6729 23.0988 60.3104 22.9396C59.9479 22.7803 59.6458 22.5936 59.4042 22.3812C59.1625 22.1689 58.9813 21.9171 58.8605 21.627C58.7397 21.3368 58.6792 20.9935 58.6792 20.5972C58.6792 20.0755 58.7763 19.6114 58.9694 19.205C59.1625 18.7985 59.4307 18.4608 59.774 18.1898C60.1173 17.9189 60.5163 17.7139 60.9704 17.5738C61.4244 17.4338 61.9132 17.3633 62.4349 17.3633C63.1599 17.3633 63.8272 17.4768 64.4359 17.7038C65.0446 17.9308 65.5764 18.199 66.0313 18.5084L65.1471 20.1322L65.148 20.1331Z" fill="#101218"/>
<path d="M71.2534 17.4649H73.095L74.2548 20.8727L75.4154 17.4649H77.2709L75.517 22.1487L76.8214 25.4412L79.7368 17.4356H81.9117L77.7212 27.7323H76.0388L74.2548 23.411L72.4717 27.7323H70.7893L66.6125 17.4356H68.7737L71.7028 25.4412L72.9788 22.1487L71.2534 17.4649Z" fill="#101218"/>
<path d="M84.0143 17.4356L86.5525 22.3959L89.1338 17.4356H91.294L87.553 24.136V27.7323H85.5658V24.1067L81.8394 17.4356H84.0143Z" fill="#101218"/>
<path d="M98.0813 20.1331C98.0136 20.0654 97.89 19.9739 97.7115 19.8576C97.5321 19.7414 97.3151 19.6279 97.0588 19.5171C96.8025 19.4063 96.5252 19.3121 96.225 19.2342C95.9256 19.1574 95.6208 19.118 95.3114 19.118C94.7604 19.118 94.3494 19.2196 94.0785 19.4228C93.8075 19.626 93.6721 19.9107 93.6721 20.2787C93.6721 20.491 93.7224 20.6677 93.824 20.8077C93.9256 20.9478 94.073 21.0714 94.2661 21.1775C94.4593 21.2837 94.7037 21.3807 94.9984 21.4677C95.2931 21.5547 95.6336 21.6462 96.0208 21.7432C96.5234 21.8787 96.9801 22.0233 97.3911 22.178C97.8021 22.3327 98.1499 22.5258 98.4355 22.7583C98.7211 22.9908 98.9408 23.2682 99.0955 23.5922C99.2502 23.9163 99.328 24.3153 99.328 24.7886C99.328 25.3396 99.2236 25.811 99.0159 26.2028C98.8081 26.5946 98.5298 26.9113 98.182 27.1529C97.8341 27.3946 97.4277 27.5712 96.9637 27.682C96.4996 27.7927 96.0163 27.8486 95.5137 27.8486C94.7403 27.8486 93.9769 27.7323 93.2226 27.5008C92.4684 27.2692 91.7919 26.9406 91.1924 26.5149L92.0766 24.7895C92.1636 24.8765 92.321 24.99 92.548 25.13C92.775 25.2701 93.0432 25.4101 93.3526 25.5501C93.662 25.6902 94.0052 25.8092 94.3824 25.9053C94.7595 26.0023 95.1458 26.0499 95.5421 26.0499C96.6442 26.0499 97.1952 25.6966 97.1952 24.9918C97.1952 24.7593 97.1321 24.5661 97.0067 24.4115C96.8813 24.2568 96.7019 24.1213 96.4703 24.005C96.2387 23.8888 95.9577 23.7826 95.6291 23.6865C95.3005 23.5895 94.9325 23.4879 94.527 23.3817C94.0336 23.2462 93.6062 23.0988 93.2437 22.9396C92.8812 22.7803 92.5791 22.5936 92.3375 22.3812C92.0958 22.1689 91.9146 21.9171 91.7938 21.627C91.6729 21.3368 91.6125 20.9935 91.6125 20.5972C91.6125 20.0755 91.7096 19.6114 91.9027 19.205C92.0958 18.7985 92.364 18.4608 92.7073 18.1898C93.0505 17.9189 93.4496 17.7139 93.9036 17.5738C94.3577 17.4338 94.8464 17.3633 95.3682 17.3633C96.0932 17.3633 96.7604 17.4768 97.3691 17.7038C97.9779 17.9308 98.5097 18.199 98.9646 18.5084L98.0804 20.1322L98.0813 20.1331Z" fill="#101218"/>
<path d="M108 25.9776V27.7323H100.85V17.4356H107.869V19.1912H102.852V21.6709H107.188V23.2947H102.852V25.9776H108Z" fill="#101218"/>
</g>
<defs>
<clipPath id="clip0_811_1001">
<rect width="108" height="44.7279" fill="white" transform="translate(0 0.636047)"/>
</clipPath>
</defs>
</svg>
